<?xml version="1.0" encoding="UTF-8"?>
<!DOCTYPE svg PUBLIC "-//W3C//DTD SVG 1.1//EN" "http://www.w3.org/Graphics/SVG/1.1/DTD/svg11.dtd">
<!-- Creator: CorelDRAW 2019 (64-Bit) -->
<svg xmlns="http://www.w3.org/2000/svg" xml:space="preserve" width="8.26772in" height="11.6929in" version="1.1" style="shape-rendering:geometricPrecision; text-rendering:geometricPrecision; image-rendering:optimizeQuality; fill-rule:evenodd; clip-rule:evenodd"
viewBox="0 0 8267.72 11692.91"
 xmlns:xlink="http://www.w3.org/1999/xlink"
 xmlns:xodm="http://www.corel.com/coreldraw/odm/2003">
 <defs>
  <style type="text/css">
   <![CDATA[
    .fil2 {fill:none}
    .fil0 {fill:#FFFFFA}
    .fil1 {fill:#E6E6E6;fill-opacity:0.470588}
   ]]>
  </style>
   <clipPath id="id0">
    <path d="M6968.55 5846.67c0,1567.11 -1270.38,2837.49 -2837.49,2837.49 -1567.11,0 -2837.51,-1270.39 -2837.51,-2837.49 0,-1567.1 1270.4,-2837.5 2837.51,-2837.5 1567.11,0 2837.49,1270.4 2837.49,2837.5z"/>
   </clipPath>
    <clipPath id="id1">
     <path d="M6968.55 5846.67c0,1567.11 -1270.38,2837.49 -2837.49,2837.49 -1567.11,0 -2837.51,-1270.39 -2837.51,-2837.49 0,-1567.1 1270.4,-2837.5 2837.51,-2837.5 1567.11,0 2837.49,1270.4 2837.49,2837.5z"/>
    </clipPath>
    <clipPath id="id2">
     <path d="M6968.55 5846.67c0,1567.11 -1270.38,2837.49 -2837.49,2837.49 -1567.11,0 -2837.51,-1270.39 -2837.51,-2837.49 0,-1567.1 1270.4,-2837.5 2837.51,-2837.5 1567.11,0 2837.49,1270.4 2837.49,2837.5z"/>
    </clipPath>
 </defs>
 <g id="Layer_x0020_1">
  <metadata id="CorelCorpID_0Corel-Layer"/>
  <path class="fil0" d="M6968.55 5846.67c0,1567.11 -1270.38,2837.49 -2837.49,2837.49 -1567.11,0 -2837.51,-1270.39 -2837.51,-2837.49 0,-1567.1 1270.4,-2837.5 2837.51,-2837.5 1567.11,0 2837.49,1270.4 2837.49,2837.5z"/>
  <g style="clip-path:url(#id0)">
   <g id="_1819290037824">
   </g>
   <g style="clip-path:url(#id1)">
    <image x="1376.67" y="3270.11" width="5518.98" height="5451.55" xlink:href="err_Images\err_ImgID1.png"/>
   </g>
   <g style="clip-path:url(#id2)">
    <path class="fil1" d="M3337.03 4771.58c0,342.3 -277.49,619.79 -619.8,619.79 -342.3,0 -619.79,-277.49 -619.79,-619.79 0,-342.3 277.49,-619.79 619.79,-619.79 342.3,0 619.8,277.49 619.8,619.79m718.26 -1063.2c0,219.07 -177.59,396.67 -396.67,396.67 -219.07,0 -396.67,-177.59 -396.67,-396.67 0,-219.07 177.59,-396.67 396.67,-396.67 219.07,0 396.67,177.59 396.67,396.67m1801.23 1167.37c0,140.21 -113.66,253.87 -253.87,253.87 -140.2,0 -253.86,-113.66 -253.86,-253.87 0,-140.2 113.66,-253.86 253.86,-253.86 140.21,0 253.87,113.66 253.87,253.86z"/>
   </g>
  </g>
  <path class="fil2" d="M6968.55 5846.67c0,1567.11 -1270.38,2837.49 -2837.49,2837.49 -1567.11,0 -2837.51,-1270.39 -2837.51,-2837.49 0,-1567.1 1270.4,-2837.5 2837.51,-2837.5 1567.11,0 2837.49,1270.4 2837.49,2837.5z"/>
 </g>
</svg>
