<svg width="545" height="545" xmlns="http://www.w3.org/2000/svg">

 <g>
  <title>background</title>
  <rect fill="none" id="canvas_background" height="602" width="802" y="-1" x="-1"/>
 </g>
 <g>
  <title>Layer 1</title>
  <g id="svg_1" fill-rule="evenodd" fill="none">
   <path id="svg_2" d="m544.8,272.4c0,150.442 -121.957,272.399 -272.399,272.399c-150.443,0 -272.401,-121.957 -272.401,-272.399c0,-150.442 121.958,-272.4 272.401,-272.4c150.442,0 272.399,121.958 272.399,272.4" fill="#FFFFFA"/>
   <path id="svg_3" d="m199.3739,191.5917c0,32.861 -26.639,59.5 -59.5,59.5c-32.861,0 -59.5,-26.639 -59.5,-59.5c0,-32.861 26.639,-59.5 59.5,-59.5c32.861,0 59.5,26.639 59.5,59.5m97.5801,-95c0,21.031 -17.049,38.08 -38.08,38.08c-21.031,0 -38.08,-17.049 -38.08,-38.08c0,-21.031 17.049,-38.08 38.08,-38.08c21.031,0 38.08,17.049 38.08,38.08m-3.7089,105c0,13.46 -10.911,24.371 -24.371,24.371c-13.46,0 -24.371,-10.911 -24.371,-24.371c0,-13.46 10.911,-24.371 24.371,-24.371c13.46,0 24.371,10.911 24.371,24.371" fill-opacity="0.3" fill="#E6E6E6"/>
  </g>
  <path d="m130,320.30002c3,0 9,0 16,0c11,0 20,0 28,0c9,0 15.03809,-0.32681 25,1c6.02953,0.80307 11.04495,0.26691 17,1c4.09221,0.50378 8.54915,2.95517 12,4c2.87128,0.86935 4.30449,-1.53073 8,0c2.61313,1.0824 3.03986,1.92398 5,3c5.11145,2.80591 6,4 7,5c1,1 2.69255,2.186 4,4c0.8269,1.14728 2.72398,3.22272 6,7c0.92661,1.06836 2,2 3,5c2,6 4,10 4,16c0,5 0,8 0,15c0,5 -0.49191,9.40973 -3,12c-5.98389,6.18005 -10.70267,8.54135 -14,10c-3.77065,1.66803 -9.04875,2.70383 -16,4c-13.1156,2.44559 -19,3 -26,3c-5,0 -8,0 -10,0c-2,0 -4.48625,-3.82376 -5,-6c-1.37852,-5.83951 -2,-12 -2,-18c0,-7 -1.85022,-16.3006 1,-28c3.07707,-12.63058 12.25063,-22.82724 21,-30c8.36497,-6.85764 15.39278,-12.46729 31,-15c5.92253,-0.96109 15,0 21,0c8,0 12.05637,-0.33099 13,0c6.04218,2.11948 10.91034,8.0983 13,15c1.44891,4.78546 0.33926,9.17429 2,17c2.04453,9.63431 4,17 4,24c0,9 -2.42825,18.42334 -7,24c-4.48297,5.46835 -12.88596,10.23672 -21,14c-6.90884,3.20432 -14,7 -17,7c-6,0 -8.4588,0.30655 -9,-1c-3.82683,-9.2388 -1.51286,-17.14435 0,-25c2.03674,-10.57599 12.17197,-23.66818 22,-35c11.11914,-12.82047 25.3158,-26.51163 41,-37c14.30154,-9.56378 31.9003,-26.17706 46,-34c12.91077,-7.16327 22.88535,-10.99707 36,-12c10.96799,-0.83875 21,0 30,0c9,0 25.39233,8.01096 35,22c16.72739,24.35559 12,36 12,49c0,9 -1.20764,16.8739 -6,25c-5.23007,8.86829 -10.23273,15.73325 -16,21c-6.26572,5.72195 -8.24402,7.16132 -13,9c-5.43866,2.10263 -6,3 -10,3c-4,0 -7.64734,-0.04031 -11,-3c-2.703,-2.38617 -3.71741,-7.2417 -7,-17c-2.25449,-6.70203 -1,-17 -1,-29c0,-27 -1.94861,-44.49158 3,-60c4.35248,-13.64023 11.67014,-26.22659 20,-38.00002c8.66357,-12.24509 19.44864,-27.24985 31,-40c7.13718,-7.87787 15,-14 23,-20c4,-3 6,-3 9,-3c2,0 2,0 3,0c3,0 7.79364,3.68768 11,13c2.68463,7.79698 2,18 2,27c0,10 -4.78787,29.16908 -12,38.00002c-5.83179,7.14075 -7.46719,12.29401 -14,15c-4.61938,1.91342 -10.92578,2.49756 -16,3c-2.98541,0.29562 -8,0 -12,0c-3,0 -8,-3 -11,-11c-3,-8 -3.24344,-16.3949 -7,-29.00002c-3.45099,-11.57976 -5.99707,-23.88535 -7,-37c-1.14377,-14.95633 0,-30 0,-43c0,-13 -2.17163,-22.89815 7,-42c4.08337,-8.50447 6.724,-11.22273 10,-15c1.85318,-2.13675 4,-2 6,-2c5,0 8.31982,5.37692 13,17c4.25876,10.57652 5.48392,15.67035 7,26c0.87128,5.9364 0,11 0,19c0,5 -0.56342,11.34235 -3,14c-4.32715,4.71974 -10.88138,8.2935 -18,11c-2.95584,1.12381 -7,1 -12,1c-5,0 -6.37769,0.59837 -13,-4c-6.41531,-4.45464 -14.90024,-11.31935 -20,-19c-2.47375,-3.72566 -8.48169,-13.87997 -10,-21c-1.4747,-6.91557 -6.49829,-14.93796 -7,-21c-0.41241,-4.98296 -1.60828,-11.18726 0,-18c2.05496,-8.705 6.9379,-15.04735 10,-19c3.92142,-5.06187 6.71411,-6.21168 9,-9c0.89661,-1.09367 2,-1 4,-1c5,0 9.7702,8.74403 15,16c5.78833,8.03089 10.56952,16.133 12,20c1.55161,4.19435 2,8 2,15c0,5 0.16495,11.00682 0,13c-0.50171,6.06204 -5.92892,12.92892 -13,20c-7.07108,7.07108 -11.77374,9.83522 -17,12c-0.92389,0.38269 -6,0 -7,0c-3,0 -6.07611,-3.61731 -7,-4c-6.53281,-2.70598 -9.89737,-10.56134 -12,-16c-1.83868,-4.75597 -5.76605,-12.05254 -7,-17c-2.52655,-10.12999 -4.39902,-14.89811 -6,-22c-1.33768,-5.93385 -2,-13 -2,-20c0,-5 0,-11 0,-15c0,-6 0,-13 0,-16c0,-2 -0.24435,-8.01498 0,-10c0.50378,-4.09221 4,-4 4,-5l1,-1l1,-1l1,0" id="svg_4" stroke-width="1.5" stroke="#000" fill="none"/>
 </g>
</svg>